<svg width="127" height="40" viewBox="0 0 127 40" fill="none" xmlns="http://www.w3.org/2000/svg">
<g clip-path="url(#clip0_3_74)">
<path d="M19.1556 14.3293L14.3353 19.1496L10.5862 15.4044C9.14961 15.914 7.59671 15.9989 6.11315 15.6492C4.62959 15.2994 3.27818 14.5297 2.22052 13.4322C1.16286 12.3346 0.443732 10.9556 0.149128 9.46013C-0.145477 7.96464 -0.00308485 6.41594 0.559275 4.99925C0.578732 4.95162 0.609645 4.90953 0.649271 4.87671C0.688897 4.84389 0.736011 4.82136 0.786432 4.81112C0.836853 4.80088 0.889021 4.80324 0.93831 4.818C0.987599 4.83275 1.03249 4.85945 1.06898 4.89571L6.18795 10.0147C6.65929 10.497 7.29122 10.7895 7.96391 10.8368C8.6366 10.8842 9.30328 10.683 9.83752 10.2715C10.136 10.0342 10.381 9.73655 10.5563 9.39797C10.7317 9.05939 10.8335 8.68757 10.8552 8.30688C10.8768 7.9262 10.8177 7.54524 10.6818 7.18898C10.5459 6.83273 10.3362 6.50922 10.0665 6.23966L4.88979 1.06296C4.85349 1.02666 4.82676 0.981937 4.81198 0.93278C4.79719 0.883624 4.79483 0.83157 4.80508 0.781274C4.81534 0.730978 4.8379 0.684007 4.87075 0.644563C4.9036 0.605119 4.94571 0.574433 4.99332 0.555246C6.40992 -0.00740521 7.95859 -0.15011 9.45415 0.144199C10.9497 0.438508 12.3288 1.15737 13.4266 2.21482C14.5244 3.27227 15.2943 4.62355 15.6444 6.10705C15.9944 7.59055 15.9098 9.14349 15.4005 10.5801L19.1556 14.3293Z" fill="#C63235"/>
<path d="M20.0095 15.1894L15.189 20.0099L20.0053 24.8263L24.8259 20.0057L20.0095 15.1894Z" fill="#C63235"/>
<path d="M39.4407 35.0005C39.4216 35.0481 39.3909 35.0902 39.3514 35.1231C39.312 35.1559 39.265 35.1785 39.2147 35.1887C39.1644 35.199 39.1124 35.1966 39.0632 35.1818C39.014 35.1671 38.9693 35.1403 38.933 35.104L33.7563 29.9273C33.4868 29.6576 33.1633 29.448 32.807 29.312C32.4508 29.1761 32.0698 29.1171 31.6891 29.1387C31.3084 29.1603 30.9366 29.2621 30.598 29.4375C30.2594 29.6129 29.9617 29.8578 29.7245 30.1563C29.313 30.6905 29.1118 31.3572 29.1592 32.0299C29.2065 32.7026 29.499 33.3345 29.9813 33.8059L35.1003 38.9248C35.1365 38.9613 35.1632 39.0062 35.178 39.0555C35.1927 39.1048 35.1951 39.157 35.1849 39.2074C35.1746 39.2578 35.1521 39.3049 35.1193 39.3446C35.0865 39.3842 35.0444 39.4151 34.9967 39.4345C33.58 39.9978 32.031 40.1409 30.5351 39.8466C29.0391 39.5524 27.6597 38.8333 26.5619 37.7753C25.464 36.7174 24.6943 35.3656 24.3449 33.8815C23.9955 32.3975 24.0811 30.8443 24.5916 29.4077L20.8604 25.6784L25.6807 20.8581L29.4159 24.5933C30.8525 24.0841 32.4054 23.9994 33.8889 24.3494C35.3724 24.6995 36.7237 25.4694 37.7812 26.5672C38.8386 27.665 39.5575 29.0441 39.8518 30.5397C40.1461 32.0352 40.0034 33.5839 39.4407 35.0005Z" fill="#C63235"/>
<path d="M8.60714 39.9704C9.81471 39.8665 10.9824 39.4873 12.0207 38.862C13.0589 38.2366 13.9401 37.3817 14.5966 36.3628C15.2531 35.344 15.6674 34.1883 15.8078 32.9844C15.9482 31.7805 15.811 30.5605 15.4065 29.4179L29.4155 15.4089C30.8521 15.9182 32.4051 16.0029 33.8886 15.6528C35.3721 15.3028 36.7234 14.5328 37.7808 13.4351C38.8383 12.3373 39.5571 10.9581 39.8514 9.46258C40.1457 7.96703 40.003 6.41835 39.4404 5.00176C39.4212 4.95415 39.3905 4.91203 39.3511 4.87918C39.3116 4.84633 39.2647 4.82377 39.2144 4.81352C39.1641 4.80326 39.112 4.80563 39.0629 4.82041C39.0137 4.83519 38.969 4.86193 38.9327 4.89822L33.756 10.0749C33.4863 10.3445 33.1627 10.554 32.8063 10.6898C32.45 10.8255 32.069 10.8844 31.6883 10.8626C31.3076 10.8408 30.9358 10.7388 30.5973 10.5632C30.2588 10.3877 29.9612 10.1426 29.7241 9.84397C29.3126 9.30972 29.1115 8.64305 29.1588 7.97036C29.2061 7.29767 29.4987 6.66574 29.981 6.19439L35.0999 1.07542C35.1362 1.03913 35.1629 0.994402 35.1777 0.945246C35.1925 0.896089 35.1949 0.844035 35.1846 0.793739C35.1744 0.743443 35.1518 0.696472 35.119 0.657028C35.0861 0.617585 35.044 0.586898 34.9964 0.567712C33.5798 0.00377649 32.0308 -0.139859 30.5347 0.154012C29.0386 0.447883 27.6589 1.1668 26.5609 2.22466C25.4629 3.28251 24.6932 4.63446 24.3438 6.11858C23.9945 7.60269 24.0804 9.15604 24.5912 10.5926L10.5822 24.6016C9.14571 24.092 7.5928 24.0071 6.10924 24.3568C4.62568 24.7066 3.27427 25.4763 2.21661 26.5738C1.15896 27.6714 0.439826 29.0504 0.145221 30.5459C-0.149383 32.0413 -0.0069911 33.59 0.555369 35.0067C0.574826 35.0544 0.605738 35.0965 0.645363 35.1293C0.684989 35.1621 0.732103 35.1846 0.782524 35.1949C0.832945 35.2051 0.885115 35.2027 0.934404 35.188C0.983693 35.1732 1.02858 35.1465 1.06507 35.1103L6.18404 29.9913C6.65538 29.509 7.28732 29.2165 7.96001 29.1692C8.6327 29.1218 9.29937 29.323 9.83362 29.7345C10.1321 29.9719 10.3771 30.2698 10.5525 30.6085C10.7279 30.9473 10.8297 31.3193 10.8514 31.7001C10.873 32.081 10.8139 32.4621 10.678 32.8185C10.542 33.1749 10.3323 33.4986 10.0626 33.7683L4.88588 38.945C4.84962 38.9815 4.82292 39.0264 4.80817 39.0757C4.79341 39.125 4.79105 39.1771 4.80129 39.2276C4.81153 39.278 4.83406 39.3251 4.86688 39.3647C4.89969 39.4044 4.94179 39.4353 4.98942 39.4547C6.13883 39.9055 7.37754 40.0821 8.60714 39.9704Z" fill="#C63235"/>
</g>
<path d="M54.584 1.4V2.104H52.928V7H52.192V2.104H50.544V1.4H54.584ZM55.7643 6.296H58.3643V7H55.0203V1.4H58.3243V2.104H55.7643V3.824H58.1243V4.52H55.7643V6.296ZM62.9465 7H62.0985L60.7225 4.792L59.3465 7H58.5065L60.3065 4.12L58.6105 1.4H59.4505L60.7225 3.44L61.9945 1.4H62.8345L61.1465 4.112L62.9465 7ZM66.8453 1.4H67.5813V7H66.8453V4.48H64.1253V7H63.3813V1.4H64.1253V3.776H66.8453V1.4ZM71.9597 7V2.824L69.0797 7H68.4797V1.4H69.2237V5.584L72.1037 1.4H72.7037V7H71.9597ZM76.6816 1.4H77.4256V7H76.6816V4.744C76.2442 4.952 75.7856 5.056 75.3056 5.056C74.7616 5.056 74.3216 4.904 73.9856 4.6C73.6496 4.29067 73.4816 3.89067 73.4816 3.4V1.4H74.2256V3.352C74.2256 3.656 74.3216 3.89867 74.5136 4.08C74.7056 4.26133 74.9722 4.352 75.3136 4.352C75.7936 4.352 76.2496 4.248 76.6816 4.04V1.4ZM79.069 6.296H81.669V7H78.325V1.4H81.629V2.104H79.069V3.824H81.429V4.52H79.069V6.296ZM84.8601 7.104C84.0121 7.104 83.3108 6.824 82.7561 6.264C82.2068 5.704 81.9321 5.016 81.9321 4.2C81.9321 3.384 82.2068 2.696 82.7561 2.136C83.3108 1.576 84.0121 1.296 84.8601 1.296C85.3721 1.296 85.8415 1.41867 86.2681 1.664C86.7001 1.90933 87.0361 2.24 87.2761 2.656L86.6281 3.032C86.4681 2.72267 86.2281 2.47733 85.9081 2.296C85.5935 2.10933 85.2441 2.016 84.8601 2.016C84.2148 2.016 83.6868 2.224 83.2761 2.64C82.8708 3.056 82.6681 3.576 82.6681 4.2C82.6681 4.81867 82.8708 5.336 83.2761 5.752C83.6868 6.168 84.2148 6.376 84.8601 6.376C85.2441 6.376 85.5935 6.28533 85.9081 6.104C86.2281 5.91733 86.4681 5.672 86.6281 5.368L87.2761 5.736C87.0415 6.152 86.7081 6.48533 86.2761 6.736C85.8441 6.98133 85.3721 7.104 84.8601 7.104ZM91.8908 7H90.9788L88.5628 4.312V7H87.8188V1.4H88.5628V3.928L90.8988 1.4H91.8108L89.3388 4.12L91.8908 7ZM95.7331 7V2.824L92.8531 7H92.2531V1.4H92.9971V5.584L95.8771 1.4H96.4771V7H95.7331ZM98.407 0.8V0.192H100.567V0.8H98.407ZM100.855 7V2.824L97.975 7H97.375V1.4H98.119V5.584L100.999 1.4H101.599V7H100.855ZM108.261 6.296H108.861V8.072H108.117V7H104.197V1.4H104.941V6.296H107.517V1.4H108.261V6.296ZM110.164 6.296H112.764V7H109.42V1.4H112.724V2.104H110.164V3.824H112.524V4.52H110.164V6.296ZM116.827 1.4H117.563V7H116.827V4.48H114.107V7H113.363V1.4H114.107V3.776H116.827V1.4ZM122.045 1.4V2.104H120.389V7H119.653V2.104H118.005V1.4H122.045ZM124.513 1.4C125.031 1.4 125.46 1.57333 125.801 1.92C126.148 2.26133 126.321 2.688 126.321 3.2C126.321 3.70667 126.148 4.13333 125.801 4.48C125.46 4.82667 125.031 5 124.513 5H123.225V7H122.481V1.4H124.513ZM124.513 4.304C124.823 4.304 125.079 4.2 125.281 3.992C125.484 3.77867 125.585 3.51467 125.585 3.2C125.585 2.88 125.484 2.616 125.281 2.408C125.079 2.2 124.823 2.096 124.513 2.096H123.225V4.304H124.513Z" fill="#333333"/>
<path d="M59.26 13H62V27H59.26V21.2H54.06V27H51.3V13H54.06V18.56H59.26V13ZM72.4008 27V18.46L66.4008 27H64.3008V13H67.0608V21.56L73.0608 13H75.1608V27H72.4008ZM85.9178 19.74C87.1445 20.4467 87.7578 21.5133 87.7578 22.94C87.7578 24.1267 87.3378 25.1 86.4978 25.86C85.6578 26.62 84.6245 27 83.3978 27H77.4578V13H82.9778C84.1778 13 85.1845 13.3733 85.9978 14.12C86.8245 14.8533 87.2378 15.7933 87.2378 16.94C87.2378 18.1 86.7978 19.0333 85.9178 19.74ZM82.9778 15.58H80.2178V18.66H82.9778C83.4045 18.66 83.7578 18.5133 84.0378 18.22C84.3311 17.9267 84.4778 17.56 84.4778 17.12C84.4778 16.68 84.3378 16.3133 84.0578 16.02C83.7778 15.7267 83.4178 15.58 82.9778 15.58ZM83.3978 24.42C83.8645 24.42 84.2511 24.2667 84.5578 23.96C84.8645 23.64 85.0178 23.24 85.0178 22.76C85.0178 22.2933 84.8645 21.9067 84.5578 21.6C84.2511 21.28 83.8645 21.12 83.3978 21.12H80.2178V24.42H83.3978ZM101.147 12.72C103.174 12.72 104.894 13.4267 106.307 14.84C107.721 16.24 108.427 17.96 108.427 20C108.427 22.0267 107.721 23.7467 106.307 25.16C104.894 26.5733 103.174 27.28 101.147 27.28C99.3339 27.28 97.7605 26.7 96.4272 25.54C95.1072 24.38 94.3139 22.9067 94.0472 21.12H92.0272V27H89.2672V13H92.0272V18.48H94.1072C94.4539 16.8 95.2739 15.42 96.5672 14.34C97.8739 13.26 99.4005 12.72 101.147 12.72ZM97.9272 23.3C98.7939 24.1533 99.8672 24.58 101.147 24.58C102.427 24.58 103.501 24.1533 104.367 23.3C105.234 22.4333 105.667 21.3333 105.667 20C105.667 18.6667 105.234 17.5667 104.367 16.7C103.501 15.8333 102.427 15.4 101.147 15.4C99.8539 15.4 98.7739 15.8267 97.9072 16.68C97.0539 17.5333 96.6272 18.64 96.6272 20C96.6272 21.3333 97.0605 22.4333 97.9272 23.3ZM116.701 27.28C114.594 27.28 112.854 26.58 111.481 25.18C110.108 23.78 109.421 22.0533 109.421 20C109.421 17.9333 110.108 16.2067 111.481 14.82C112.854 13.42 114.594 12.72 116.701 12.72C117.968 12.72 119.134 13.02 120.201 13.62C121.281 14.2067 122.121 15.0067 122.721 16.02L120.341 17.4C119.994 16.7733 119.501 16.2867 118.861 15.94C118.221 15.58 117.501 15.4 116.701 15.4C115.341 15.4 114.241 15.8267 113.401 16.68C112.574 17.5333 112.161 18.64 112.161 20C112.161 21.3467 112.574 22.4467 113.401 23.3C114.241 24.1533 115.341 24.58 116.701 24.58C117.501 24.58 118.221 24.4067 118.861 24.06C119.514 23.7 120.008 23.2133 120.341 22.6L122.721 23.98C122.121 24.9933 121.288 25.8 120.221 26.4C119.154 26.9867 117.981 27.28 116.701 27.28Z" fill="#C63235"/>
<path d="M55.9494 32.4V38H55.2134V33.624L53.3814 36.672H53.2854L51.4534 33.632V38H50.7094V32.4H51.5494L53.3334 35.36L55.1094 32.4H55.9494ZM61.5029 37.256C60.9429 37.8213 60.2575 38.104 59.4469 38.104C58.6362 38.104 57.9509 37.8213 57.3909 37.256C56.8309 36.6907 56.5509 36.0053 56.5509 35.2C56.5509 34.3893 56.8309 33.704 57.3909 33.144C57.9509 32.5787 58.6362 32.296 59.4469 32.296C60.2575 32.296 60.9429 32.5787 61.5029 33.144C62.0682 33.704 62.3509 34.3893 62.3509 35.2C62.3509 36.0053 62.0682 36.6907 61.5029 37.256ZM57.9029 36.752C58.3189 37.168 58.8335 37.376 59.4469 37.376C60.0602 37.376 60.5722 37.168 60.9829 36.752C61.3989 36.3307 61.6069 35.8133 61.6069 35.2C61.6069 34.5813 61.3989 34.064 60.9829 33.648C60.5722 33.2267 60.0602 33.016 59.4469 33.016C58.8335 33.016 58.3189 33.2267 57.9029 33.648C57.4922 34.064 57.2869 34.5813 57.2869 35.2C57.2869 35.8133 57.4922 36.3307 57.9029 36.752ZM65.5773 38.104C64.7293 38.104 64.028 37.824 63.4733 37.264C62.924 36.704 62.6493 36.016 62.6493 35.2C62.6493 34.384 62.924 33.696 63.4733 33.136C64.028 32.576 64.7293 32.296 65.5773 32.296C66.0893 32.296 66.5586 32.4187 66.9853 32.664C67.4173 32.9093 67.7533 33.24 67.9933 33.656L67.3453 34.032C67.1853 33.7227 66.9453 33.4773 66.6253 33.296C66.3106 33.1093 65.9613 33.016 65.5773 33.016C64.932 33.016 64.404 33.224 63.9933 33.64C63.588 34.056 63.3853 34.576 63.3853 35.2C63.3853 35.8187 63.588 36.336 63.9933 36.752C64.404 37.168 64.932 37.376 65.5773 37.376C65.9613 37.376 66.3106 37.2853 66.6253 37.104C66.9453 36.9173 67.1853 36.672 67.3453 36.368L67.9933 36.736C67.7586 37.152 67.4253 37.4853 66.9933 37.736C66.5613 37.9813 66.0893 38.104 65.5773 38.104ZM72.6079 38H71.6959L69.2799 35.312V38H68.5359V32.4H69.2799V34.928L71.6159 32.4H72.5279L70.0559 35.12L72.6079 38ZM76.1703 35.096C76.4263 35.2187 76.629 35.3947 76.7783 35.624C76.933 35.8533 77.0103 36.1173 77.0103 36.416C77.0103 36.864 76.853 37.24 76.5383 37.544C76.2236 37.848 75.8396 38 75.3863 38H72.9703V32.4H75.2103C75.6476 32.4 76.0183 32.5467 76.3223 32.84C76.6263 33.1333 76.7783 33.496 76.7783 33.928C76.7783 34.424 76.5756 34.8133 76.1703 35.096ZM75.2103 33.096H73.7143V34.808H75.2103C75.445 34.808 75.6423 34.7253 75.8023 34.56C75.9623 34.3947 76.0423 34.192 76.0423 33.952C76.0423 33.7173 75.9596 33.5173 75.7943 33.352C75.6343 33.1813 75.4396 33.096 75.2103 33.096ZM75.3863 37.304C75.637 37.304 75.8476 37.216 76.0183 37.04C76.189 36.864 76.2743 36.648 76.2743 36.392C76.2743 36.1413 76.1863 35.928 76.0103 35.752C75.8396 35.576 75.6316 35.488 75.3863 35.488H73.7143V37.304H75.3863ZM81.2802 38L80.8242 36.744H78.3042L77.8482 38H77.0562L79.1442 32.4H79.9842L82.0722 38H81.2802ZM78.5602 36.048H80.5682L79.5602 33.288L78.5602 36.048ZM87.6128 38V33.824L84.7328 38H84.1328V32.4H84.8768V36.584L87.7568 32.4H88.3568V38H87.6128ZM96.1947 32.4V38H95.4587V33.624L93.6267 36.672H93.5307L91.6987 33.632V38H90.9547V32.4H91.7947L93.5787 35.36L95.3547 32.4H96.1947ZM101.748 37.256C101.188 37.8213 100.503 38.104 99.6922 38.104C98.8815 38.104 98.1962 37.8213 97.6362 37.256C97.0762 36.6907 96.7962 36.0053 96.7962 35.2C96.7962 34.3893 97.0762 33.704 97.6362 33.144C98.1962 32.5787 98.8815 32.296 99.6922 32.296C100.503 32.296 101.188 32.5787 101.748 33.144C102.314 33.704 102.596 34.3893 102.596 35.2C102.596 36.0053 102.314 36.6907 101.748 37.256ZM98.1482 36.752C98.5642 37.168 99.0789 37.376 99.6922 37.376C100.306 37.376 100.818 37.168 101.228 36.752C101.644 36.3307 101.852 35.8133 101.852 35.2C101.852 34.5813 101.644 34.064 101.228 33.648C100.818 33.2267 100.306 33.016 99.6922 33.016C99.0789 33.016 98.5642 33.2267 98.1482 33.648C97.7375 34.064 97.5322 34.5813 97.5322 35.2C97.5322 35.8133 97.7375 36.3307 98.1482 36.752Z" fill="#828282"/>
<defs>
<clipPath id="clip0_3_74">
<rect width="40" height="40" fill="white"/>
</clipPath>
</defs>
</svg>
