<svg width="25" height="25" viewBox="0 0 25 25" fill="none" xmlns="http://www.w3.org/2000/svg">
<g clip-path="url(#clip0_1801_65538)">
<path fill-rule="evenodd" clip-rule="evenodd" d="M1.75736 1.75736C0 3.51472 0 6.34312 0 12V13C0 18.6569 0 21.4853 1.75736 23.2427C3.51472 25 6.34312 25 12 25H13C18.6569 25 21.4853 25 23.2427 23.2427C25 21.4853 25 18.6569 25 13V12C25 6.34312 25 3.51472 23.2427 1.75736C21.4853 0 18.6569 0 13 0H12C6.34312 0 3.51472 0 1.75736 1.75736ZM4.21881 7.60422C4.35423 14.1042 7.60422 18.0105 13.3021 18.0105H13.6251V14.2917C15.7189 14.5001 17.3021 16.0313 17.9375 18.0105H20.8959C20.0834 15.0521 17.9479 13.4167 16.6145 12.7917C17.9479 12.0209 19.8229 10.1459 20.2708 7.60422H17.5832C16.9999 9.66672 15.2709 11.5417 13.6251 11.7188V7.60422H10.9375V14.8126C9.27083 14.3959 7.16672 12.3751 7.07297 7.60422H4.21881Z" fill="white"/>
</g>
<defs>
<clipPath id="clip0_1801_65538">
<rect width="25" height="25" fill="white"/>
</clipPath>
</defs>
</svg>
