<svg width="25" height="25" viewBox="0 0 25 25" fill="none" xmlns="http://www.w3.org/2000/svg">
<path d="M0 25L1.75729 18.5802C0.672917 16.701 0.103125 14.5708 0.104167 12.3865C0.107292 5.55729 5.66458 0 12.4927 0C15.8063 0.00104167 18.9167 1.29167 21.2563 3.63333C23.5948 5.975 24.8823 9.0875 24.8813 12.3979C24.8781 19.2281 19.3208 24.7854 12.4927 24.7854C10.4198 24.7844 8.37708 24.2646 6.56771 23.2771L0 25ZM6.87188 21.0344C8.61771 22.0708 10.2844 22.6917 12.4885 22.6927C18.1635 22.6927 22.7865 18.074 22.7896 12.3958C22.7917 6.70625 18.1906 2.09375 12.4969 2.09167C6.81771 2.09167 2.19792 6.71042 2.19583 12.3875C2.19479 14.7052 2.87396 16.4406 4.01458 18.2562L2.97396 22.0562L6.87188 21.0344ZM18.7333 15.3427C18.6563 15.2135 18.45 15.1365 18.1396 14.9812C17.8302 14.826 16.3083 14.0771 16.024 13.974C15.7406 13.8708 15.5344 13.8187 15.3271 14.1292C15.1208 14.4385 14.5271 15.1365 14.3469 15.3427C14.1667 15.549 13.9854 15.575 13.676 15.4198C13.3667 15.2646 12.3688 14.9385 11.1865 13.8833C10.2667 13.0625 9.64479 12.049 9.46458 11.7385C9.28438 11.4292 9.44583 11.2615 9.6 11.1073C9.73958 10.9688 9.90938 10.7458 10.0646 10.5646C10.2219 10.3854 10.2729 10.2563 10.3771 10.049C10.4802 9.84271 10.4292 9.66146 10.351 9.50625C10.2729 9.35208 9.65417 7.82812 9.39688 7.20833C9.14479 6.60521 8.88958 6.68646 8.7 6.67708L8.10625 6.66667C7.9 6.66667 7.56458 6.74375 7.28125 7.05417C6.99792 7.36458 6.19792 8.1125 6.19792 9.63646C6.19792 11.1604 7.30729 12.6323 7.46146 12.8385C7.61667 13.0448 9.64375 16.1719 12.749 17.5125C13.4875 17.8312 14.0646 18.0219 14.5135 18.1646C15.2552 18.4 15.9302 18.3667 16.4635 18.2875C17.0583 18.199 18.2948 17.5385 18.5531 16.8156C18.8115 16.0917 18.8115 15.4719 18.7333 15.3427Z" fill="white"/>
</svg>
