<svg width="25" height="25" viewBox="0 0 25 25" fill="none" xmlns="http://www.w3.org/2000/svg">
<path d="M24.751 7.50006C24.751 7.50006 24.5068 5.77643 23.7549 5.01959C22.8027 4.0235 21.7383 4.01862 21.25 3.96002C17.7539 3.70612 12.5049 3.70612 12.5049 3.70612H12.4951C12.4951 3.70612 7.24609 3.70612 3.75 3.96002C3.26172 4.01862 2.19727 4.0235 1.24512 5.01959C0.493164 5.77643 0.253906 7.50006 0.253906 7.50006C0.253906 7.50006 0 9.52643 0 11.5479V13.4424C0 15.4639 0.249023 17.4903 0.249023 17.4903C0.249023 17.4903 0.493164 19.2139 1.24023 19.9708C2.19238 20.9669 3.44238 20.9327 3.99902 21.0401C6.00098 21.2305 12.5 21.2891 12.5 21.2891C12.5 21.2891 17.7539 21.2794 21.25 21.0303C21.7383 20.9717 22.8027 20.9669 23.7549 19.9708C24.5068 19.2139 24.751 17.4903 24.751 17.4903C24.751 17.4903 25 15.4688 25 13.4424V11.5479C25 9.52643 24.751 7.50006 24.751 7.50006ZM9.91699 15.7422V8.71588L16.6699 12.2413L9.91699 15.7422Z" fill="white"/>
</svg>
