<svg width="80" height="80" viewBox="0 0 80 80" fill="none" xmlns="http://www.w3.org/2000/svg">
<path d="M16.6666 12C16.6666 10.8954 17.5621 10 18.6666 10H39.75C39.888 10 40 10.1119 40 10.25V31.3333C40 32.4379 40.8954 33.3333 42 33.3333H63.0833C63.2214 33.3333 63.3333 33.4453 63.3333 33.5833V68C63.3333 69.1046 62.4379 70 61.3333 70H18.6666C17.5621 70 16.6666 69.1046 16.6666 68V12Z" fill="#7E869E" fill-opacity="0.25"/>
<path d="M43.3334 29V10.6036C43.3334 10.3808 43.6027 10.2693 43.7602 10.4268L62.9066 29.5732C63.0641 29.7307 62.9525 30 62.7298 30H44.3334C43.7811 30 43.3334 29.5523 43.3334 29Z" fill="#EB5757"/>
<path d="M28.3334 45L48.3334 45" stroke="#222222" stroke-linecap="round"/>
<path d="M28.3334 55L45 55" stroke="#222222" stroke-linecap="round"/>
</svg>
